<svg viewBox="0 0 1400 280" xmlns="http://www.w3.org/2000/svg">
  <!-- Background -->
  <rect width="1400" height="280" fill="#ffffff"/>
  
  <!-- Header Container -->
  <rect x="20" y="20" width="1360" height="240" fill="#f8f9fa" stroke="#e0e0e0" stroke-width="1" rx="8"/>
  
  <!-- Left Logo Area (pgh.ai) -->
  <rect x="50" y="50" width="280" height="120" fill="#000000" rx="8"/>
  <text x="190" y="120" font-size="72" font-weight="300" text-anchor="middle" fill="#2dd4bf" font-family="Arial, sans-serif">pgh.ai</text>
  <!-- Gold geometric shapes -->
  <ellipse cx="170" cy="65" rx="15" ry="15" fill="#fbbf24"/>
  <ellipse cx="210" cy="65" rx="15" ry="15" fill="#fbbf24"/>
  <ellipse cx="170" cy="175" rx="15" ry="15" fill="#fbbf24"/>
  <ellipse cx="210" cy="175" rx="15" ry="15" fill="#fbbf24"/>
  
  <!-- Center Text Area -->
  <g transform="translate(400, 0)">
    <text x="290" y="90" font-size="42" font-weight="bold" text-anchor="middle" fill="#1a1a1a">
      🤖 AI Newsletter Article Analysis
    </text>
    <text x="290" y="125" font-size="16" text-anchor="middle" fill="#666">
      Intelligent claim extraction and external source verification
    </text>
    <text x="290" y="160" font-size="14" text-anchor="middle" fill="#999">
      Created by <tspan font-weight="bold" fill="#c53030">Nerd Lawyer</tspan> for <tspan font-weight="bold" fill="#2dd4bf">pgh.ai</tspan>
    </text>
  </g>
  
  <!-- Right Logo Area (Nerd Lawyer) -->
  <g transform="translate(1070, 50)">
    <!-- Oval background -->
    <ellipse cx="140" cy="60" rx="135" ry="55" fill="#ffffff" stroke="#c53030" stroke-width="4"/>
    <ellipse cx="140" cy="60" rx="128" ry="48" fill="#ffffff" stroke="#000000" stroke-width="2"/>
    
    <!-- Nerd Lawyer Text -->
    <text x="140" y="60" font-size="36" font-weight="bold" text-anchor="middle" fill="#c41e3a" 
          stroke="#000000" stroke-width="1" paint-order="stroke">
      Nerd Lawyer
    </text>
    <text x="140" y="85" font-size="14" font-weight="bold" text-anchor="middle" fill="#1a1a1a">
      NerdLawyer.ai
    </text>
    
    <!-- Small nerdy element -->
    <g transform="translate(240, 25)">
      <circle cx="0" cy="0" r="8" fill="#1a1a1a"/>
      <line x1="-6" y1="-6" x2="6" y2="6" stroke="#ffffff" stroke-width="2"/>
      <line x1="6" y1="-6" x2="-6" y2="6" stroke="#ffffff" stroke-width="2"/>
    </g>
  </g>
  
  <!-- Divider Line -->
  <line x1="20" y1="265" x2="1380" y2="265" stroke="#cbd5e0" stroke-width="2"/>
  
  <!-- Labels for clarity -->
  <text x="190" y="195" font-size="11" text-anchor="middle" fill="#4a5568" font-style="italic">pgh.ai logo</text>
  <text x="1210" y="145" font-size="11" text-anchor="middle" fill="#4a5568" font-style="italic">Nerd Lawyer logo</text>
</svg>