<svg viewBox="0 0 1400 900" xmlns="http://www.w3.org/2000/svg">
  <!-- Title -->
  <text x="700" y="40" font-size="28" font-weight="bold" text-anchor="middle" fill="#1a1a1a">
    Intelligent Paywall Handling
  </text>
  
  <!-- OLD APPROACH -->
  <g id="old-approach">
    <rect x="50" y="80" width="600" height="360" fill="#fff5f5" stroke="#e53e3e" stroke-width="2" rx="10"/>
    <text x="350" y="115" font-size="22" font-weight="bold" text-anchor="middle" fill="#c53030">
      ❌ Old Approach: Accept Whatever We Get
    </text>
    
    <!-- Article -->
    <rect x="80" y="150" width="140" height="60" fill="#edf2f7" stroke="#4a5568" stroke-width="2" rx="5"/>
    <text x="150" y="175" font-size="13" text-anchor="middle" fill="#2d3748" font-weight="bold">Article Links</text>
    <text x="150" y="195" font-size="11" text-anchor="middle" fill="#4a5568">42 total links</text>
    
    <!-- Arrow -->
    <line x1="220" y1="180" x2="280" y2="180" stroke="#4a5568" stroke-width="2" marker-end="url(#arrowgray)"/>
    
    <!-- Select Top 5 -->
    <rect x="280" y="150" width="140" height="60" fill="#f7fafc" stroke="#4a5568" stroke-width="2" rx="5"/>
    <text x="350" y="170" font-size="12" text-anchor="middle" fill="#2d3748" font-weight="bold">Select Top 5</text>
    <text x="350" y="188" font-size="10" text-anchor="middle" fill="#4a5568">By quality score</text>
    <text x="350" y="202" font-size="9" text-anchor="middle" fill="#718096">Fixed selection</text>
    
    <!-- Arrow -->
    <line x1="420" y1="180" x2="480" y2="180" stroke="#e53e3e" stroke-width="2" marker-end="url(#arrowred)"/>
    
    <!-- Fetch All 5 -->
    <rect x="480" y="150" width="140" height="60" fill="#f7fafc" stroke="#4a5568" stroke-width="2" rx="5"/>
    <text x="550" y="170" font-size="12" text-anchor="middle" fill="#2d3748" font-weight="bold">Fetch All 5</text>
    <text x="550" y="188" font-size="10" text-anchor="middle" fill="#4a5568">Parallel fetch</text>
    <text x="550" y="202" font-size="9" text-anchor="middle" fill="#718096">~8 seconds</text>
    
    <!-- Results -->
    <text x="350" y="245" font-size="14" font-weight="bold" text-anchor="middle" fill="#c53030">Results (Example):</text>
    
    <!-- Source 1 - Paywalled -->
    <rect x="80" y="260" width="250" height="30" fill="#feb2b2" stroke="#e53e3e" stroke-width="1" rx="3"/>
    <text x="90" y="280" font-size="11" fill="#742a2a">1. ❌ Nature.com [paywalled]</text>
    
    <!-- Source 2 - Paywalled -->
    <rect x="80" y="295" width="250" height="30" fill="#feb2b2" stroke="#e53e3e" stroke-width="1" rx="3"/>
    <text x="90" y="315" font-size="11" fill="#742a2a">2. ❌ Science.org [paywalled]</text>
    
    <!-- Source 3 - Success -->
    <rect x="80" y="330" width="250" height="30" fill="#c6f6d5" stroke="#48bb78" stroke-width="1" rx="3"/>
    <text x="90" y="350" font-size="11" fill="#22543d">3. ✅ ArXiv.org [12,345 chars]</text>
    
    <!-- Source 4 - Paywalled -->
    <rect x="80" y="365" width="250" height="30" fill="#feb2b2" stroke="#e53e3e" stroke-width="1" rx="3"/>
    <text x="90" y="385" font-size="11" fill="#742a2a">4. ❌ WSJ.com [paywalled]</text>
    
    <!-- Source 5 - Paywalled -->
    <rect x="80" y="400" width="250" height="30" fill="#feb2b2" stroke="#e53e3e" stroke-width="1" rx="3"/>
    <text x="90" y="420" font-size="11" fill="#742a2a">5. ❌ Bloomberg [paywalled]</text>
    
    <!-- Summary -->
    <rect x="360" y="260" width="260" height="170" fill="#fff5f5" stroke="#e53e3e" stroke-width="1" rx="5"/>
    <text x="490" y="285" font-size="13" font-weight="bold" text-anchor="middle" fill="#c53030">Problem:</text>
    <text x="490" y="310" font-size="11" text-anchor="middle" fill="#742a2a">Only 1 usable source</text>
    <text x="490" y="330" font-size="11" text-anchor="middle" fill="#742a2a">4 wasted attempts</text>
    <text x="490" y="350" font-size="11" text-anchor="middle" fill="#742a2a">Poor verification</text>
    <text x="490" y="370" font-size="11" text-anchor="middle" fill="#742a2a">No visibility into</text>
    <text x="490" y="387" font-size="11" text-anchor="middle" fill="#742a2a">paywall issues</text>
    <text x="490" y="415" font-size="13" font-weight="bold" text-anchor="middle" fill="#e53e3e">Low Confidence</text>
  </g>
  
  <!-- NEW APPROACH -->
  <g id="new-approach">
    <rect x="750" y="80" width="600" height="360" fill="#f0fff4" stroke="#48bb78" stroke-width="2" rx="10"/>
    <text x="1050" y="115" font-size="22" font-weight="bold" text-anchor="middle" fill="#22543d">
      ✅ New Approach: Keep Fetching Until 5 Usable
    </text>
    
    <!-- Article -->
    <rect x="780" y="150" width="140" height="60" fill="#edf2f7" stroke="#4a5568" stroke-width="2" rx="5"/>
    <text x="850" y="175" font-size="13" text-anchor="middle" fill="#2d3748" font-weight="bold">Article Links</text>
    <text x="850" y="195" font-size="11" text-anchor="middle" fill="#4a5568">42 total links</text>
    
    <!-- Arrow -->
    <line x1="920" y1="180" x2="980" y2="180" stroke="#4a5568" stroke-width="2" marker-end="url(#arrowgray)"/>
    
    <!-- Rank All -->
    <rect x="980" y="150" width="140" height="60" fill="#f7fafc" stroke="#4a5568" stroke-width="2" rx="5"/>
    <text x="1050" y="170" font-size="12" text-anchor="middle" fill="#2d3748" font-weight="bold">Rank Top 15</text>
    <text x="1050" y="188" font-size="10" text-anchor="middle" fill="#4a5568">By quality score</text>
    <text x="1050" y="202" font-size="9" text-anchor="middle" fill="#48bb78">Adaptive pool</text>
    
    <!-- Arrow -->
    <line x1="1120" y1="180" x2="1180" y2="180" stroke="#48bb78" stroke-width="2" marker-end="url(#arrowgreen)"/>
    
    <!-- Fetch Batches -->
    <rect x="1180" y="150" width="140" height="60" fill="#f7fafc" stroke="#4a5568" stroke-width="2" rx="5"/>
    <text x="1250" y="165" font-size="12" text-anchor="middle" fill="#2d3748" font-weight="bold">Fetch Batches</text>
    <text x="1250" y="183" font-size="10" text-anchor="middle" fill="#4a5568">Until 5 successful</text>
    <text x="1250" y="197" font-size="9" text-anchor="middle" fill="#718096">Max 15 attempts</text>
    <text x="1250" y="209" font-size="9" text-anchor="middle" fill="#718096">~16 seconds</text>
    
    <!-- Results -->
    <text x="1050" y="245" font-size="14" font-weight="bold" text-anchor="middle" fill="#22543d">Results (Example):</text>
    
    <!-- Success Sources (1-5) -->
    <rect x="780" y="260" width="250" height="30" fill="#c6f6d5" stroke="#48bb78" stroke-width="1" rx="3"/>
    <text x="790" y="280" font-size="11" fill="#22543d">1. ✅ ArXiv.org [12,345 chars]</text>
    
    <rect x="780" y="295" width="250" height="30" fill="#c6f6d5" stroke="#48bb78" stroke-width="1" rx="3"/>
    <text x="790" y="315" font-size="11" fill="#22543d">2. ✅ GitHub.com [8,901 chars]</text>
    
    <rect x="780" y="330" width="250" height="30" fill="#c6f6d5" stroke="#48bb78" stroke-width="1" rx="3"/>
    <text x="790" y="350" font-size="11" fill="#22543d">3. ✅ OpenAI blog [15,234 chars]</text>
    
    <rect x="780" y="365" width="250" height="30" fill="#c6f6d5" stroke="#48bb78" stroke-width="1" rx="3"/>
    <text x="790" y="385" font-size="11" fill="#22543d">4. ✅ Google AI [11,567 chars]</text>
    
    <rect x="780" y="400" width="250" height="30" fill="#c6f6d5" stroke="#48bb78" stroke-width="1" rx="3"/>
    <text x="790" y="420" font-size="11" fill="#22543d">5. ✅ MIT News [9,876 chars]</text>
    
    <!-- Summary -->
    <rect x="1060" y="260" width="260" height="170" fill="#f0fff4" stroke="#48bb78" stroke-width="1" rx="5"/>
    <text x="1190" y="285" font-size="13" font-weight="bold" text-anchor="middle" fill="#22543d">Solution:</text>
    <text x="1190" y="310" font-size="11" text-anchor="middle" fill="#22543d">5 usable sources ✅</text>
    <text x="1190" y="330" font-size="11" text-anchor="middle" fill="#22543d">4 paywalled (tracked)</text>
    <text x="1190" y="350" font-size="11" text-anchor="middle" fill="#22543d">Good verification</text>
    <text x="1190" y="370" font-size="11" text-anchor="middle" fill="#22543d">Paywall stats: 44%</text>
    <text x="1190" y="390" font-size="11" text-anchor="middle" fill="#22543d">9 total attempted</text>
    <text x="1190" y="415" font-size="13" font-weight="bold" text-anchor="middle" fill="#48bb78">High Confidence</text>
  </g>
  
  <!-- Comparison Metrics -->
  <g id="metrics">
    <rect x="50" y="480" width="1300" height="380" fill="#ffffff" stroke="#cbd5e0" stroke-width="2" rx="10"/>
    <text x="700" y="520" font-size="24" font-weight="bold" text-anchor="middle" fill="#2d3748">
      Key Improvements
    </text>
    
    <!-- Metric 1 -->
    <rect x="80" y="560" width="380" height="120" fill="#f7fafc" stroke="#cbd5e0" stroke-width="1" rx="5"/>
    <text x="270" y="590" font-size="16" font-weight="bold" text-anchor="middle" fill="#2d3748">Usable Sources</text>
    <text x="160" y="625" font-size="14" text-anchor="middle" fill="#e53e3e">Before: 1-2</text>
    <text x="160" y="650" font-size="12" text-anchor="middle" fill="#9b2c2c">(20-40% success)</text>
    <text x="380" y="625" font-size="14" text-anchor="middle" fill="#48bb78">After: 5</text>
    <text x="380" y="650" font-size="12" text-anchor="middle" fill="#276749">(100% of target)</text>
    
    <!-- Metric 2 -->
    <rect x="510" y="560" width="380" height="120" fill="#f7fafc" stroke="#cbd5e0" stroke-width="1" rx="5"/>
    <text x="700" y="590" font-size="16" font-weight="bold" text-anchor="middle" fill="#2d3748">Paywall Visibility</text>
    <text x="590" y="625" font-size="14" text-anchor="middle" fill="#e53e3e">Before: None</text>
    <text x="590" y="650" font-size="12" text-anchor="middle" fill="#9b2c2c">(No statistics)</text>
    <text x="810" y="625" font-size="14" text-anchor="middle" fill="#48bb78">After: Clear</text>
    <text x="810" y="650" font-size="12" text-anchor="middle" fill="#276749">(44% paywalled)</text>
    
    <!-- Metric 3 -->
    <rect x="940" y="560" width="380" height="120" fill="#f7fafc" stroke="#cbd5e0" stroke-width="1" rx="5"/>
    <text x="1130" y="590" font-size="16" font-weight="bold" text-anchor="middle" fill="#2d3748">Verification Quality</text>
    <text x="1020" y="625" font-size="14" text-anchor="middle" fill="#e53e3e">Before: Poor</text>
    <text x="1020" y="650" font-size="12" text-anchor="middle" fill="#9b2c2c">(1 source)</text>
    <text x="1240" y="625" font-size="14" text-anchor="middle" fill="#48bb78">After: Good</text>
    <text x="1240" y="650" font-size="12" text-anchor="middle" fill="#276749">(5 sources)</text>
    
    <!-- Example Metrics Display -->
    <rect x="80" y="710" width="1240" height="130" fill="#edf2f7" stroke="#4a5568" stroke-width="1" rx="5"/>
    <text x="700" y="740" font-size="18" font-weight="bold" text-anchor="middle" fill="#2d3748">
      UI Metrics Display
    </text>
    
    <rect x="200" y="760" width="200" height="60" fill="#ffffff" stroke="#cbd5e0" stroke-width="1" rx="3"/>
    <text x="300" y="780" font-size="11" text-anchor="middle" fill="#4a5568">Links Found</text>
    <text x="300" y="805" font-size="24" font-weight="bold" text-anchor="middle" fill="#2d3748">42</text>
    
    <rect x="500" y="760" width="200" height="60" fill="#ffffff" stroke="#cbd5e0" stroke-width="1" rx="3"/>
    <text x="600" y="780" font-size="11" text-anchor="middle" fill="#4a5568">Sources Verified</text>
    <text x="600" y="805" font-size="24" font-weight="bold" text-anchor="middle" fill="#48bb78">5/9</text>
    
    <rect x="800" y="760" width="200" height="60" fill="#ffffff" stroke="#cbd5e0" stroke-width="1" rx="3"/>
    <text x="900" y="780" font-size="11" text-anchor="middle" fill="#4a5568">Paywall Rate</text>
    <text x="900" y="805" font-size="24" font-weight="bold" text-anchor="middle" fill="#f59e0b">🟡 44%</text>
  </g>
  
  <!-- Arrow markers -->
  <defs>
    <marker id="arrowred" markerWidth="10" markerHeight="10" refX="9" refY="3" orient="auto">
      <path d="M0,0 L0,6 L9,3 z" fill="#e53e3e"/>
    </marker>
    <marker id="arrowgreen" markerWidth="10" markerHeight="10" refX="9" refY="3" orient="auto">
      <path d="M0,0 L0,6 L9,3 z" fill="#48bb78"/>
    </marker>
    <marker id="arrowgray" markerWidth="10" markerHeight="10" refX="9" refY="3" orient="auto">
      <path d="M0,0 L0,6 L9,3 z" fill="#4a5568"/>
    </marker>
  </defs>
</svg>